<?xml version="1.0" encoding="UTF-8" standalone="no"?>
<svg width="256px" height="256px" viewBox="0 0 256 256" version="1.1" xmlns="http://www.w3.org/2000/svg" xmlns:xlink="http://www.w3.org/1999/xlink">
    <!-- Generator: Sketch 39.1 (31720) - http://www.bohemiancoding.com/sketch -->
    <title>c_bienestar_red</title>
    <desc>Created with Sketch.</desc>
    <defs></defs>
    <g id="Icons" stroke="none" stroke-width="1" fill="none" fill-rule="evenodd">
        <g id="c_bienestar_red" fill="#ec0000">
            <g id="ic_dumbbell">
                <path d="M236.863705,95.7240998 L254.478696,78.457303 C255.369839,77.56616 255.94623,76.2009211 255.94623,74.8356822 C255.94623,73.419296 255.421642,72.1078273 254.424926,71.1111111 L236.599444,53.2679238 L254.424926,35.7912921 C255.421642,34.7952316 255.997377,33.48114 255.997377,32.064098 C255.997377,30.6477118 255.475413,29.3362432 254.478696,28.3401827 L227.68867,1.52130368 C226.691953,0.525243211 225.380485,-4.18558003e-13 223.966721,-4.18558003e-13 C222.550335,-4.18558003e-13 221.24149,0.57639049 220.244773,1.5750739 L202.785846,19.4182612 L184.960364,1.5750739 C183.964303,0.57639049 182.601687,0.051147279 181.239072,0.051147279 C179.82203,0.051147279 178.513184,0.630160706 177.517123,1.62622118 L160.268031,19.2595735 L142.65304,1.62622118 C140.609116,-0.420325716 137.30487,-0.420325716 135.260291,1.62622118 L108.470264,28.4451002 C107.473548,29.4411606 106.951583,30.7526293 106.951583,32.1696713 C106.951583,33.5886804 107.527318,34.9001491 108.470264,35.8962095 L147.527113,74.9943699 L75.0225665,147.57367 L35.9657174,108.47551 C34.9690012,107.478794 33.6575325,106.95355 32.2411463,106.95355 C30.8273831,106.95355 29.5159144,107.532564 28.5191982,108.47551 L1.62425397,135.083898 C-0.420325716,137.130445 -0.420325716,140.437313 1.62425397,142.48386 L19.2392457,160.117213 L1.57245096,177.330239 C0.57639049,178.328922 0,179.640391 0,181.056777 C0,182.473164 0.525243211,183.784632 1.52130368,184.783971 L19.4490807,202.732076 L1.62425397,220.206085 C0.630160706,221.205424 0.051147279,222.516893 0.051147279,223.933279 C0.051147279,225.349665 0.57639049,226.661134 1.57245096,227.660473 L28.3631334,254.476073 C29.3591939,255.475413 30.6686953,255.997377 32.0850815,255.997377 C33.5014677,255.997377 34.8129364,255.421642 35.8063739,254.424926 L53.2653009,236.581739 L71.0396361,254.371156 C72.0356965,255.369839 73.345198,255.89246 74.7615842,255.89246 C76.1779704,255.89246 77.4868162,255.316069 78.4835324,254.320009 L95.8368861,236.737804 L113.503681,254.424926 C114.553512,255.475413 115.862357,255.94623 117.227596,255.94623 C118.590868,255.94623 119.899714,255.421642 120.949544,254.424926 L147.740227,227.606703 C149.784151,225.5595 149.784151,222.253288 147.740227,220.206085 L108.682722,181.107925 L181.187269,108.52928 L220.244773,147.62744 C221.29526,148.677271 222.604106,149.148744 223.969344,149.148744 C225.33196,149.148744 226.640806,148.623501 227.690637,147.62744 L254.481319,120.808561 C255.47738,119.812501 256,118.501032 256,117.084646 C256,115.665637 255.42361,114.354168 254.481319,113.357452 L236.863705,95.7240998 Z M223.966721,12.6484598 L243.259737,31.9591805 L229.156203,45.8141915 L210.17794,26.8182233 L223.966721,12.6484598 Z M181.185301,12.6484598 L243.259737,74.7333876 L229.366038,88.4290552 L167.555207,26.5546181 L181.185301,12.6484598 Z M32.0850815,243.35154 L12.7920656,224.038197 L26.8955999,210.183186 L45.9269778,229.232924 L32.0850815,243.35154 Z M74.7589613,243.29777 L12.7409183,181.213498 L26.6851092,167.622092 L88.4959401,229.493906 L74.7589613,243.29777 Z M136.571759,224.038197 L117.225629,243.402687 L12.7409183,138.811092 L32.0850815,119.445945 L136.571759,224.038197 Z M101.236858,173.761733 L82.255972,154.763797 L154.763797,82.184497 L173.741405,101.183088 L101.236858,173.761733 Z M223.912951,136.554055 L119.428241,31.9591805 L138.772404,12.5946896 L243.259737,117.189564 L223.912951,136.554055 Z" id="dumbbell"></path>
            </g>
        </g>
    </g>
</svg>