<?xml version="1.0" encoding="UTF-8" standalone="no"?>
<svg width="26px" height="26px" viewBox="0 0 26 26" version="1.1" xmlns="http://www.w3.org/2000/svg" xmlns:xlink="http://www.w3.org/1999/xlink">
    <!-- Generator: sketchtool 39.1 (31720) - http://www.bohemiancoding.com/sketch -->
    <title>897F5491-F1E3-4F44-AD15-AE9D3AE302C0</title>
    <desc>Created with sketchtool.</desc>
    <defs></defs>
    <g id="home" stroke="none" stroke-width="1" fill="none" fill-rule="evenodd">
        <g id="santander_twist_home_v1" transform="translate(-1327.000000, -12.000000)">
            <g id="ic_apps" transform="translate(1328.000000, 13.000000)">
                <polygon id="Bounds" stroke="#FFFFFF" stroke-width="2" transform="translate(12.000000, 12.000000) scale(-1, -1) translate(-12.000000, -12.000000) " points="0 0 24 0 24 24 0 24"></polygon>
                <path d="M6,9 L9,9 L9,6 L6,6 L6,9 L6,9 Z M10.5,18 L13.5,18 L13.5,15 L10.5,15 L10.5,18 L10.5,18 Z M6,18 L9,18 L9,15 L6,15 L6,18 L6,18 Z M6,13.5 L9,13.5 L9,10.5 L6,10.5 L6,13.5 L6,13.5 Z M10.5,13.5 L13.5,13.5 L13.5,10.5 L10.5,10.5 L10.5,13.5 L10.5,13.5 Z M15,6 L15,9 L18,9 L18,6 L15,6 L15,6 Z M10.5,9 L13.5,9 L13.5,6 L10.5,6 L10.5,9 L10.5,9 Z M15,13.5 L18,13.5 L18,10.5 L15,10.5 L15,13.5 L15,13.5 Z M15,18 L18,18 L18,15 L15,15 L15,18 L15,18 Z" id="Shape" fill="#FFFFFF"></path>
            </g>
        </g>
    </g>
</svg>