<?xml version="1.0" encoding="UTF-8" standalone="no"?>
<svg width="28px" height="28px" viewBox="0 0 28 28" version="1.1" xmlns="http://www.w3.org/2000/svg" xmlns:xlink="http://www.w3.org/1999/xlink">
    <!-- Generator: sketchtool 39.1 (31720) - http://www.bohemiancoding.com/sketch -->
    <title>7A61525F-8AC5-47E6-A397-D8CACFA363C5</title>
    <desc>Created with sketchtool.</desc>
    <defs></defs>
    <g id="home" stroke="none" stroke-width="1" fill="none" fill-rule="evenodd">
        <g id="santander_twist_home_v1" transform="translate(-1292.000000, -2001.000000)">
            <g id="ic_info_outline" transform="translate(1290.000000, 1999.000000)">
                <polygon id="Bounds" points="0 0 32 0 32 32 0 32"></polygon>
                <path d="M14.6666667,22.6666667 L17.3333333,22.6666667 L17.3333333,14.6666667 L14.6666667,14.6666667 L14.6666667,22.6666667 L14.6666667,22.6666667 Z M16,2.66666667 C8.64,2.66666667 2.66666667,8.64 2.66666667,16 C2.66666667,23.36 8.64,29.3333333 16,29.3333333 C23.36,29.3333333 29.3333333,23.36 29.3333333,16 C29.3333333,8.64 23.36,2.66666667 16,2.66666667 L16,2.66666667 Z M16,26.6666667 C10.12,26.6666667 5.33333333,21.88 5.33333333,16 C5.33333333,10.12 10.12,5.33333333 16,5.33333333 C21.88,5.33333333 26.6666667,10.12 26.6666667,16 C26.6666667,21.88 21.88,26.6666667 16,26.6666667 L16,26.6666667 Z M14.6666667,12 L17.3333333,12 L17.3333333,9.33333333 L14.6666667,9.33333333 L14.6666667,12 L14.6666667,12 Z" id="Shape" fill="#333333"></path>
            </g>
        </g>
    </g>
</svg>