<?xml version="1.0" encoding="UTF-8" standalone="no"?>
<svg width="31px" height="30px" viewBox="0 0 31 30" version="1.1" xmlns="http://www.w3.org/2000/svg" xmlns:xlink="http://www.w3.org/1999/xlink">
    <!-- Generator: sketchtool 40.1 (33804) - http://www.bohemiancoding.com/sketch -->
    <title>5F24713E-B1CD-4323-88D1-E9E86961825E</title>
    <desc>Created with sketchtool.</desc>
    <defs>
        <polygon id="path-1" points="1.61769145e-21 0.0434888968 1.61769145e-21 29.3762963 30.4420328 29.3762963 30.4420328 0.0434888968 0 0.0434888968"></polygon>
    </defs>
    <g id="Flujo-Nivel-1" stroke="none" stroke-width="1" fill="none" fill-rule="evenodd">
        <g id="Santander_twist_promociones" transform="translate(-273.000000, -419.000000)">
            <g id="Group" transform="translate(11.000000, 111.000000)">
                <g id="Fila-2" transform="translate(0.000000, 295.000000)">
                    <g id="Viajes-Copy" transform="translate(240.000000, 0.000000)">
                        <g id="percentage" transform="translate(22.000000, 13.000000)">
                            <path d="M12.3912351,12.2184983 C12.3912351,12.8955799 11.8096114,13.4447133 11.0925487,13.4447133 C10.3754064,13.4447133 9.79378265,12.8955799 9.79378265,12.2184983 C9.79378265,11.5414918 10.3754064,10.9923585 11.0925487,10.9923585 C11.8096114,10.9923585 12.3912351,11.5414918 12.3912351,12.2184983 L12.3912351,12.2184983 Z" id="Fill-1" fill="#DC3E37"></path>
                            <g id="Group-5">
                                <mask id="mask-2" fill="white">
                                    <use xlink:href="#path-1"></use>
                                </mask>
                                <g id="Clip-3"></g>
                                <path d="M20.6417135,17.1951083 C20.6417135,17.8724153 20.0604081,18.4212481 19.3429475,18.4212481 C18.6258052,18.4212481 18.0442611,17.8724153 18.0442611,17.1951083 C18.0442611,16.5180267 18.6258052,15.9688934 19.3429475,15.9688934 C20.0604081,15.9688934 20.6417135,16.5180267 20.6417135,17.1951083 L20.6417135,17.1951083 Z" id="Fill-2" fill="#DC3E37" mask="url(#mask-2)"></path>
                                <path d="M30.0509831,16.3295979 L29.5797319,15.7226887 C29.0705226,15.0614597 29.0577904,14.1657466 29.5607927,13.4927972 L30.0189139,12.8797273 C30.7192655,11.9420909 30.3944348,10.6378148 29.3186418,10.0907851 L28.6186084,9.73624136 C27.8545161,9.35149491 27.4342732,8.54623961 27.5806938,7.73474842 L27.7143025,6.99545824 C27.9182567,5.86556138 27.0205557,4.81958598 25.8044695,4.77142693 L25.0087058,4.74152475 C24.143074,4.70538668 23.3917139,4.1524968 23.1498813,3.3651227 L22.9269878,2.64371372 C22.5897432,1.53785882 21.303789,0.966787204 20.1835128,1.42373465 L19.4511714,1.71809837 C18.6554077,2.04266479 17.7259556,1.85040426 17.1468783,1.23733435 L16.6184116,0.678283718 C15.8099157,-0.175130632 14.3902732,-0.16896988 13.5879842,0.702325675 L13.0660427,1.26731167 C12.4931724,1.88654233 11.5700069,2.09082383 10.7679566,1.77827839 L10.0294083,1.4897749 C8.90260684,1.05100919 7.62938486,1.64619789 7.3045541,2.75197766 L7.0947112,3.47924686 C6.86529251,4.27255632 6.12706249,4.83776771 5.26103281,4.879766 L4.46526907,4.92168916 C3.24958081,4.98802994 2.37081891,6.0457258 2.59371233,7.17562265 L2.74013286,7.91491284 C2.89928561,8.7205438 2.49201373,9.53173446 1.73420792,9.92850188 L1.04038151,10.2950666 C-0.0226792666,10.8541172 -0.328252543,12.1645542 0.391038302,13.0901695 L0.862289588,13.6970787 C1.37141923,14.3583076 1.38423103,15.2537203 0.881228766,15.9269702 L0.423028004,16.5400401 C-0.277244087,17.4776764 0.0472683661,18.7819526 1.12306137,19.3289823 L1.82341303,19.683526 C2.58750538,20.0682725 3.0074299,20.8736029 2.86100937,21.685019 L2.72732107,22.4243091 C2.5237647,23.554206 3.42146578,24.6001814 4.63715404,24.6483404 L5.43291778,24.6782426 C6.29894746,24.7143807 7.04998928,25.2672706 7.29214018,26.0547198 L7.5147153,26.7760537 C7.85227828,27.8819086 9.13823248,28.4527548 10.2585087,27.9960327 L10.9905317,27.7014436 C11.7862955,27.3771026 12.7157475,27.5693631 13.2951431,28.182433 L13.8236098,28.7411831 C14.6383127,29.5949731 16.0579552,29.5888124 16.853719,28.7174417 L17.3758991,28.1522303 C17.948849,27.533225 18.8720145,27.3290187 19.6739852,27.6415641 L20.4126131,27.9300676 C21.5394146,28.3687582 22.8126366,27.7736446 23.137149,26.6677897 L23.3473102,25.9405205 C23.576331,25.1469857 24.314959,24.5819997 25.1806703,24.5400014 L25.9764341,24.4980782 C27.1924406,24.4317374 28.0708842,23.3740416 27.8479908,22.2441447 L27.7015703,21.5048545 C27.5424175,20.6992236 27.9499281,19.8878075 28.7074952,19.4912655 L29.4016399,19.1244003 C30.4647007,18.5715104 30.770274,17.2614491 30.0509831,16.3295979 L30.0509831,16.3295979 Z M7.95389731,12.2184983 C7.95389731,10.5835701 9.35460064,9.2614127 11.0862621,9.2614127 C12.8176849,9.2614127 14.2183882,10.5835701 14.2183882,12.2184983 C14.2183882,13.8535017 12.8176849,15.175659 11.0862621,15.175659 C9.35460064,15.175659 7.95389731,13.8473409 7.95389731,12.2184983 L7.95389731,12.2184983 Z M11.6908834,19.8458092 C11.4235864,20.1524944 10.9399212,20.1944927 10.6150904,19.9420522 C10.2904984,19.6896868 10.2457765,19.2327393 10.5130735,18.9263546 L18.7318806,9.57981837 C18.9991776,9.27343368 19.4831611,9.23120999 19.8076736,9.48387594 C20.1325043,9.73624136 20.1769875,10.1929634 19.9096109,10.4996486 L11.6908834,19.8458092 Z M19.3429475,20.1524944 C17.6115248,20.1524944 16.210901,18.8300365 16.210901,17.1951083 C16.210901,15.5604055 17.6115248,14.2379476 19.3429475,14.2379476 C21.0746886,14.2379476 22.4750736,15.5604055 22.4750736,17.1951083 C22.4750736,18.8300365 21.0746886,20.1524944 19.3429475,20.1524944 L19.3429475,20.1524944 Z" id="Fill-4" fill="#DC3E37" mask="url(#mask-2)"></path>
                            </g>
                        </g>
                    </g>
                </g>
            </g>
        </g>
    </g>
</svg>