<?xml version="1.0" encoding="UTF-8" standalone="no"?>
<svg width="16px" height="16px" viewBox="0 0 16 16" version="1.1" xmlns="http://www.w3.org/2000/svg" xmlns:xlink="http://www.w3.org/1999/xlink">
    <!-- Generator: sketchtool 39.1 (31720) - http://www.bohemiancoding.com/sketch -->
    <title>AF56B2F6-6CFA-4D51-B1C7-C1D8AEB5FBAF</title>
    <desc>Created with sketchtool.</desc>
    <defs></defs>
    <g id="home" stroke="none" stroke-width="1" fill="none" fill-rule="evenodd">
        <g id="santander_twist_home_v1" transform="translate(-585.000000, -720.000000)">
            <g id="Group-3" transform="translate(358.000000, 708.000000)">
                <g id="ic_search" transform="translate(225.000000, 10.000000)">
                    <polygon id="Bounds" points="0 0 20 0 20 20 0 20"></polygon>
                    <path d="M12.9166667,11.6666667 L12.2583333,11.6666667 L12.025,11.4416667 C12.8416667,10.4916667 13.3333333,9.25833333 13.3333333,7.91666667 C13.3333333,4.925 10.9083333,2.5 7.91666667,2.5 C4.925,2.5 2.5,4.925 2.5,7.91666667 C2.5,10.9083333 4.925,13.3333333 7.91666667,13.3333333 C9.25833333,13.3333333 10.4916667,12.8416667 11.4416667,12.025 L11.6666667,12.2583333 L11.6666667,12.9166667 L15.8333333,17.075 L17.075,15.8333333 L12.9166667,11.6666667 L12.9166667,11.6666667 Z M7.91666667,11.6666667 C5.84166667,11.6666667 4.16666667,9.99166667 4.16666667,7.91666667 C4.16666667,5.84166667 5.84166667,4.16666667 7.91666667,4.16666667 C9.99166667,4.16666667 11.6666667,5.84166667 11.6666667,7.91666667 C11.6666667,9.99166667 9.99166667,11.6666667 7.91666667,11.6666667 L7.91666667,11.6666667 Z" id="Shape" fill="#333333"></path>
                </g>
            </g>
        </g>
    </g>
</svg>