<?xml version="1.0" encoding="UTF-8" standalone="no"?>
<svg width="256px" height="256px" viewBox="0 0 256 256" version="1.1" xmlns="http://www.w3.org/2000/svg" xmlns:xlink="http://www.w3.org/1999/xlink">
    <!-- Generator: Sketch 39.1 (31720) - http://www.bohemiancoding.com/sketch -->
    <title>ic_check_white</title>
    <desc>Created with Sketch.</desc>
    <defs></defs>
    <g id="Icons" stroke="none" stroke-width="1" fill="none" fill-rule="evenodd">
        <g id="ic_check_white" fill="#FFFFFF">
            <g id="ic_room" transform="translate(38.000000, 0.000000)">
                <path d="M89.7196262,0.398753894 C40.3379439,0.398753894 0.398753894,40.3379439 0.398753894,89.7196262 C0.398753894,156.71028 89.7196262,255.601246 89.7196262,255.601246 C89.7196262,255.601246 179.040498,156.71028 179.040498,89.7196262 C179.040498,40.3379439 139.101308,0.398753894 89.7196262,0.398753894 L89.7196262,0.398753894 Z M89.7196262,121.619938 C72.1106542,121.619938 57.8193146,107.328598 57.8193146,89.7196262 C57.8193146,72.1106542 72.1106542,57.8193146 89.7196262,57.8193146 C107.328598,57.8193146 121.619938,72.1106542 121.619938,89.7196262 C121.619938,107.328598 107.328598,121.619938 89.7196262,121.619938 L89.7196262,121.619938 Z" id="Shape"></path>
            </g>
        </g>
    </g>
</svg>