<?xml version="1.0" encoding="UTF-8" standalone="no"?>
<svg width="256px" height="256px" viewBox="0 0 256 256" version="1.1" xmlns="http://www.w3.org/2000/svg" xmlns:xlink="http://www.w3.org/1999/xlink">
    <!-- Generator: Sketch 39.1 (31720) - http://www.bohemiancoding.com/sketch -->
    <title>ic_compras_white</title>
    <desc>Created with Sketch.</desc>
    <defs>
        <polygon id="path-1" points="0.0390839695 0.172519084 0.0390839695 254.999349 203.96686 254.999349 203.96686 0.172519084 0.0390839695 0.172519084"></polygon>
    </defs>
    <g id="Icons" stroke="none" stroke-width="1" fill="none" fill-rule="evenodd">
        <g id="ic_compras_white">
            <g id="ic_shopping_bag" transform="translate(21.000000, 1.000000)">
                <mask id="mask-2" fill="white">
                    <use xlink:href="#path-1"></use>
                </mask>
                <g id="Clip-2"></g>
                <path d="M203.913445,220.449771 L189.323399,56.1420662 C189.010076,52.4929262 185.936122,49.7296896 182.341048,49.7296896 L152.323257,49.7296896 C151.90571,22.3201018 129.49887,0.172519084 101.982453,0.172519084 C74.4679898,0.172519084 52.0611501,22.3201018 51.6436031,49.7296896 L21.6258117,49.7296896 C17.9799288,49.7296896 14.9567837,52.4929262 14.6434606,56.1420662 L0.0508091603,220.449771 C0.0508091603,220.658219 0,220.867318 0,221.075766 C0,239.783308 17.1448346,254.999349 38.2495267,254.999349 L165.714728,254.999349 C186.822025,254.999349 203.96686,239.783308 203.96686,221.075766 C203.96686,220.867318 203.96686,220.658219 203.913445,220.449771 L203.913445,220.449771 Z M101.982453,14.2440509 C121.732885,14.2440509 137.837435,30.0860865 138.251725,49.7296896 L65.7125293,49.7296896 C66.1300763,30.0860865 82.231369,14.2440509 101.982453,14.2440509 L101.982453,14.2440509 Z M165.714728,240.931074 L38.2495267,240.931074 C25.0124377,240.931074 14.2799796,232.174962 14.0715318,221.389089 L28.0355827,63.8546361 L51.5901883,63.8546361 L51.5901883,85.2185852 C51.5901883,89.1269822 54.7175573,92.2536997 58.6259542,92.2536997 C62.5343511,92.2536997 65.6617201,89.1269822 65.6617201,85.2185852 L65.6617201,63.8546361 L138.251725,63.8546361 L138.251725,85.2185852 C138.251725,89.1269822 141.379094,92.2536997 145.287491,92.2536997 C149.195888,92.2536997 152.323257,89.1269822 152.323257,85.2185852 L152.323257,63.8546361 L175.877863,63.8546361 L189.89598,221.389089 C189.68688,232.174962 178.901008,240.931074 165.714728,240.931074 L165.714728,240.931074 Z" id="Fill-1" fill="#FFFFFF" mask="url(#mask-2)"></path>
            </g>
        </g>
    </g>
</svg>