<?xml version="1.0" encoding="UTF-8" standalone="no"?>
<svg width="256px" height="256px" viewBox="0 0 256 256" version="1.1" xmlns="http://www.w3.org/2000/svg" xmlns:xlink="http://www.w3.org/1999/xlink">
    <!-- Generator: Sketch 39.1 (31720) - http://www.bohemiancoding.com/sketch -->
    <title>ic_entretenimiento_white</title>
    <desc>Created with Sketch.</desc>
    <defs></defs>
    <g id="Icons" stroke="none" stroke-width="1" fill="none" fill-rule="evenodd">
        <g id="ic_entretenimiento_white" fill="#FFFFFF">
            <g id="ic_electric_guitar" transform="translate(0.000000, 1.000000)">
                <path d="M253.18781,2.68609524 C250.67581,0.15352381 246.93181,-0.319619048 243.868952,1.50742857 L201.380571,26.864381 C200.416762,27.4388571 199.696762,28.3470476 199.36,29.4182857 L197.800381,34.3828571 C197.508571,35.3085714 196.98819,36.1565714 196.288762,36.832381 L107.696762,122.653333 C105.842286,122.676952 104.404571,122.209905 103.434667,121.236952 C100.958476,118.76381 101.508571,116.757714 101.794286,116.105524 C101.916952,115.915048 107.45219,106.796571 107.583238,106.570286 C113.160381,96.912381 115.612952,86.0194286 114.678857,75.0137143 C113.19619,57.6118095 108.068571,34.5847619 92.0419048,23.7192381 C83.5718095,17.9752381 73.1428571,16.3409524 60.9912381,18.799619 C54.1752381,17.8114286 46.5744762,18.5733333 38.2293333,21.0998095 C25.6312381,24.9184762 15.9794286,32.9748571 9.54438095,45.0434286 C-10.2826667,82.239619 6.31238095,146.787429 10.2110476,160.555048 C4.29790476,167.385524 1.06285714,176.010286 1.06285714,185.135619 C1.06285714,195.188952 4.97904762,204.64419 12.0891429,211.754286 L37.4674286,237.135619 C44.8068571,244.475048 54.4464762,248.141333 64.0860952,248.141333 C73.7264762,248.141333 83.3660952,244.475048 90.7055238,237.135619 C92.9135238,234.927619 94.839619,232.453714 96.4259048,229.784762 C101.181714,223.480762 104.877714,214.671619 107.419429,203.602667 C108.910476,197.118095 113.52381,191.763429 119.759238,189.281143 C126.934857,186.424 136.880762,181.522667 141.294476,177.112 C145.336381,173.070095 147.110095,168.942095 146.880762,164.120762 C146.67581,159.864762 144.651429,156.200762 141.467429,154.320381 C138.744381,152.709714 135.464381,152.632762 132.437333,154.120762 C131.949714,154.364571 131.541333,154.558095 131.208381,154.706667 C124.64,157.700952 120.190476,158.097143 117.982476,155.888381 C115.044571,152.951238 118.818286,147.721524 119.428571,146.921524 L212.518095,51.5615238 L215.940571,48.1382857 C218.64,45.4388571 223.030095,45.4388571 225.729524,48.1382857 C226.72,49.1295238 228.112762,49.6118095 229.508571,49.4449524 C230.902095,49.2758095 232.14019,48.4780952 232.869333,47.2780952 L254.29181,12.0133333 C256.143238,8.96571429 255.699048,5.21561905 253.18781,2.68609524 L253.18781,2.68609524 Z M201.312762,44.6982857 L203.90781,47.2933333 L104.015238,149.620952 L98.592,144.197714 L201.312762,44.6982857 Z M105.568762,75.7870476 C106.038857,81.3230476 105.464381,86.8232381 103.916952,92.0910476 C102.416762,90.8826667 100.666667,90.0582857 98.8038095,89.6834286 C98.9432381,77.1059048 97.5177143,44.528381 80.1752381,28.0940952 C82.5980952,28.832381 84.848,29.888381 86.9104762,31.2872381 C94.1104762,36.168 103.190857,47.8525714 105.568762,75.7870476 L105.568762,75.7870476 Z M32.9104762,147.579048 C29.3866667,132.781333 24.7855238,108.433143 25.7051429,85.0937143 C26.9348571,53.9508571 37.5626667,35.1295238 57.2975238,29.1478095 C58.583619,28.7607619 59.8392381,28.4300952 61.0773333,28.1382857 C65.2022857,28.9542857 68.8838095,30.6175238 72.0777143,33.1531429 C89.383619,46.8971429 89.8453333,81.6864762 89.6129524,91.5135238 C79.5984762,96.8293333 72.0030476,107.090667 66.455619,122.775238 C63.0537143,132.385905 55.5146667,139.816762 45.7737143,143.165333 L32.9104762,147.579048 Z M17.6129524,49.3466667 C21.8300952,41.4358095 27.488,35.7992381 34.791619,32.2365714 C31.0834286,35.9805714 27.9108571,40.4331429 25.3097143,45.5965714 C20.1310476,55.8914286 17.1900952,69.0579048 16.5714286,84.7340952 C15.5954286,109.504381 20.5241905,135.174476 24.1874286,150.412571 C23.6068571,150.653333 19.7561905,152.546667 17.872,153.787048 C13.0057143,134.918476 1.13371429,80.2579048 17.6129524,49.3466667 L17.6129524,49.3466667 Z M111.514667,162.353143 C116.699429,167.537143 124.601143,167.763429 134.955429,163.046476 C135.339429,162.876571 135.881143,162.620571 136.493714,162.314286 C136.693333,162.216 136.815238,162.192381 136.80381,162.183238 C137.053714,162.290667 137.678476,163.123429 137.747048,164.558095 C137.821714,166.129905 137.520762,167.953905 134.827429,170.64419 C132.137143,173.338286 124.374857,177.602667 116.374857,180.787429 C107.350857,184.382857 100.672762,192.144381 98.5089524,201.555429 C96.279619,211.269714 93.0179048,219.150095 89.0742857,224.350095 C88.9318095,224.528381 88.8007619,224.71581 88.6841905,224.915429 C87.464381,227.007619 85.9672381,228.942095 84.2407619,230.668571 C73.127619,241.781714 55.047619,241.781714 43.9344762,230.668571 L18.9074286,205.641524 C13.4735238,200.206857 10.2201905,192.879619 10.2057143,185.192 C10.1904762,177.558476 13.1580952,170.37981 18.5539048,164.984 C20.7977143,162.739429 23.3866667,160.894857 26.2529524,159.499048 C26.2704762,159.489905 26.2887619,159.480762 26.3032381,159.471619 C28.3573333,158.486476 35.1398095,156.478095 35.1398095,156.478095 L48.744381,151.811429 C61.1398095,147.552381 70.7352381,138.078857 75.0742857,125.822857 C79.9550476,112.019429 86.3512381,103.302476 94.5866667,99.2308571 C94.6994286,99.1744762 94.8152381,99.1180952 94.9318095,99.064 C95.616,98.7371429 96.384,98.6144762 97.1337143,98.7188571 C97.3211429,98.7455238 97.3958095,98.7668571 97.6068571,98.8346667 C98.3154286,99.0670476 98.696381,99.6979048 98.8899048,100.013333 C98.9287619,100.072762 98.976,100.156571 99.0270476,100.260952 C99.5207619,101.243048 99.431619,102.424 98.848,103.35581 C98.7619048,103.499048 98.6727619,103.638476 98.5805714,103.781714 C95.5390476,107.748952 94.0152381,111.079238 93.6251429,112.001905 C93.2533333,112.760762 92.4937143,114.590857 92.4167619,117.043429 C92.3337143,119.745905 93.0537143,123.784762 96.9699048,127.704 C97.9047619,128.63581 98.9493333,129.406095 100.086095,130.022476 L88.9699048,140.790476 C88.5089524,141.24 88.1127619,141.760381 87.8659048,142.35619 C87.1253333,144.144381 87.5657143,146.10019 88.8449524,147.379429 L100.821333,159.35581 C101.678476,160.216 102.841905,160.695238 104.053333,160.695238 L104.08,160.695238 C105.294476,160.695238 106.458667,160.206857 107.306667,159.338286 L108.601143,158.010286 C109.205333,159.516571 110.145524,160.984 111.514667,162.353143 L111.514667,162.353143 Z M227.544381,38.4361905 C221.967238,35.88 215.220571,36.68 210.380952,40.8346667 L206.559238,37.0137143 L207.562667,33.8228571 L243.303619,12.4925714 L227.544381,38.4361905 Z" id="Fill-1"></path>
                <path d="M51.8895238,181.766476 C50.104381,179.980571 47.2114286,179.980571 45.4255238,181.766476 C43.639619,183.552381 43.639619,186.448381 45.4255238,188.230476 L59.9702857,202.775238 C60.8632381,203.66819 62.0327619,204.114667 63.2022857,204.114667 C64.3718095,204.114667 65.5413333,203.66819 66.4342857,202.775238 C68.2201905,200.990095 68.2201905,198.097143 66.4342857,196.311238 L51.8895238,181.766476 Z" id="Fill-3"></path>
                <path d="M67.9314286,169.14781 C66.1455238,167.364952 63.2502857,167.364952 61.4674286,169.14781 C59.6815238,170.932952 59.6815238,173.828952 61.4674286,175.61181 L72.5889524,186.734095 C73.4788571,187.626286 74.6514286,188.072762 75.8217143,188.072762 C76.9912381,188.072762 78.1607619,187.626286 79.0537143,186.734095 C80.839619,184.951238 80.839619,182.055238 79.0537143,180.269333 L67.9314286,169.14781 Z" id="Fill-4"></path>
                <path d="M85.2533333,151.825905 C83.4674286,150.04 80.5744762,150.04 78.7885714,151.825905 C77.0026667,153.61181 77.0026667,156.50781 78.7885714,158.290667 L89.9108571,169.41219 C90.8038095,170.305143 91.9733333,170.751619 93.1428571,170.751619 C94.312381,170.751619 95.4819048,170.305143 96.3748571,169.41219 C98.1607619,167.626286 98.1607619,164.734095 96.3748571,162.94819 L85.2533333,151.825905 Z" id="Fill-5"></path>
            </g>
        </g>
    </g>
</svg>