<?xml version="1.0" encoding="UTF-8" standalone="no"?>
<svg width="256px" height="256px" viewBox="0 0 256 256" version="1.1" xmlns="http://www.w3.org/2000/svg" xmlns:xlink="http://www.w3.org/1999/xlink">
    <!-- Generator: Sketch 39.1 (31720) - http://www.bohemiancoding.com/sketch -->
    <title>ic_restaurantes_red</title>
    <desc>Created with Sketch.</desc>
    <defs>
        <polygon id="path-1" points="0.606814815 1.45129877 0.606814815 255.989886 196.264138 255.989886 196.264138 1.45129877 0.606814815 1.45129877"></polygon>
    </defs>
    <g id="Icons" stroke="none" stroke-width="1" fill="none" fill-rule="evenodd">
        <g id="ic_restaurantes_red">
            <g id="ic_cutlery" transform="translate(27.000000, 0.000000)">
                <mask id="mask-2" fill="white">
                    <use xlink:href="#path-1"></use>
                </mask>
                <g id="Clip-2"></g>
                <path d="M153.362331,255.989886 C141.822736,255.989886 132.42722,246.584257 132.42722,235.054775 L138.465027,108.078775 C120.84717,101.484721 110.460523,82.3194864 110.460523,56.0545185 C110.460523,25.9463901 129.696553,1.45129877 153.362331,1.45129877 C177.028109,1.45129877 196.264138,25.9463901 196.264138,56.0545185 C196.264138,82.3194864 185.877491,101.444267 168.259635,108.078775 L174.297442,234.852504 C174.297442,246.584257 164.901926,255.989886 153.362331,255.989886 L153.362331,255.989886 Z M153.362331,9.55227654 C134.166756,9.55227654 118.561501,30.406479 118.561501,56.0545185 C118.561501,79.9529086 127.957017,96.8628148 143.724089,101.282449 C145.544533,101.798242 146.768277,103.497323 146.687368,105.358222 L140.487743,235.246933 C140.487743,242.164622 146.252484,247.888909 153.362331,247.888909 C160.431723,247.888909 166.206578,242.124168 166.206578,235.054775 L160.037294,105.358222 C159.956385,103.497323 161.190242,101.798242 163.000573,101.282449 C178.767644,96.8628148 188.16316,79.9529086 188.16316,56.0545185 C188.16316,30.406479 172.557906,9.55227654 153.362331,9.55227654 L153.362331,9.55227654 Z" id="Fill-1" fill="#ec0000" mask="url(#mask-2)"></path>
                <path d="M42.9018074,255.989886 C31.3318716,255.989886 21.9666963,246.584257 21.9666963,235.054775 L28.0146173,107.997867 C11.3777778,101.960059 0,86.0716247 0,68.3020642 L0,5.48661728 C0,3.27174321 1.82044444,1.45129877 4.02520494,1.45129877 L22.1588543,1.45129877 C24.3737284,1.45129877 26.1941728,3.27174321 26.1941728,5.48661728 L26.1941728,59.8066568 L30.694716,59.8066568 L30.694716,5.48661728 C30.694716,3.27174321 32.5151605,1.45129877 34.7300346,1.45129877 L51.0432395,1.45129877 C53.2985679,1.45129877 55.1088988,3.27174321 55.1088988,5.48661728 L55.1088988,59.8066568 L59.5791012,59.8066568 L59.5791012,5.48661728 C59.5791012,3.27174321 61.3894321,1.45129877 63.6447605,1.45129877 L81.7379556,1.45129877 C83.993284,1.45129877 85.8036148,3.27174321 85.8036148,5.48661728 L85.8036148,68.3020642 C85.8036148,86.0716247 74.425837,101.960059 57.7991111,107.997867 L63.8369185,234.852504 C63.8369185,246.584257 54.4414025,255.989886 42.9018074,255.989886 L42.9018074,255.989886 Z M8.10097778,9.55227654 L8.10097778,68.3020642 C8.10097778,83.5432296 18.4471704,97.0954272 33.2635654,101.201541 C35.0840099,101.676879 36.3077531,103.37596 36.2268444,105.277314 L30.0272198,235.246933 C30.0272198,242.164622 35.7919605,247.888909 42.9018074,247.888909 C49.9712,247.888909 55.7460543,242.124168 55.7460543,235.054775 L49.5767704,105.277314 C49.5059753,103.37596 50.7297185,101.676879 52.5400494,101.201541 C67.3564444,97.0954272 77.7127506,83.5432296 77.7127506,68.3020642 L77.7127506,9.55227654 L67.6699654,9.55227654 L67.6699654,63.8318617 C67.6699654,66.0871901 65.8596346,67.9076346 63.6447605,67.9076346 L51.0432395,67.9076346 C48.8283654,67.9076346 47.007921,66.0871901 47.007921,63.8318617 L47.007921,9.55227654 L38.7956938,9.55227654 L38.7956938,63.8318617 C38.7956938,66.0871901 36.9752494,67.9076346 34.7300346,67.9076346 L22.1588543,67.9076346 C19.9540938,67.9076346 18.1336494,66.0871901 18.1336494,63.8318617 L18.1336494,9.55227654 L8.10097778,9.55227654 Z" id="Fill-3" fill="#ec0000" mask="url(#mask-2)"></path>
            </g>
        </g>
    </g>
</svg>