<?xml version="1.0" encoding="UTF-8" standalone="no"?>
<svg width="256px" height="256px" viewBox="0 0 256 256" version="1.1" xmlns="http://www.w3.org/2000/svg" xmlns:xlink="http://www.w3.org/1999/xlink">
    <!-- Generator: Sketch 39.1 (31720) - http://www.bohemiancoding.com/sketch -->
    <title>ic_servicios_white</title>
    <desc>Created with Sketch.</desc>
    <defs></defs>
    <g id="Icons" stroke="none" stroke-width="1" fill="none" fill-rule="evenodd">
        <g id="ic_servicios_white" fill="#FFFFFF">
            <g id="ic_24_hours" transform="translate(19.000000, 73.000000)">
                <path d="M31.3446926,55.0444955 L2.35209613,84.7399205 L2.35209613,101.140479 L72.0737896,101.140479 L72.0737896,81.3490488 L33.0336889,81.3490488 L50.850944,62.819766 C57.8350724,55.5614976 62.6076829,49.5966545 65.2092523,44.9325961 C67.7979427,40.2593383 69.0987275,35.3873752 69.0987275,30.2983079 C69.0987275,20.9628317 65.8642444,13.5886518 59.4099971,8.17024862 C52.9557498,2.74448602 45.4527793,0.0343645143 36.9213242,0.0343645143 C28.3972285,0.0343645143 21.3689433,1.87422976 15.8493476,5.54660079 C10.3371113,9.22633127 5.27748186,14.6465743 0.64838091,21.8036501 L18.3294859,32.2761631 C23.898758,23.4135322 29.7844869,18.9868164 36.0013916,18.9868164 C39.3941031,18.9868164 42.1833388,20.0870558 44.3451805,22.3004137 C46.5235809,24.521131 47.6017419,27.2809289 47.6017419,30.5724478 C47.6017419,33.8786857 46.3506336,37.2916357 43.8502567,40.8278567 C41.3553994,44.3567182 37.1881047,49.0998908 31.3446926,55.0444955 L31.3446926,55.0444955 Z" id="Fill-5"></path>
                <polygon id="Fill-6" points="124.524668 101.140479 145.732795 101.140479 145.732795 77.523969 156.908136 77.523969 156.908136 58.4353671 145.732795 58.4353671 145.732795 41.1866304 124.524668 41.1866304 124.524668 58.4353671 110.530653 58.4353671 144.036439 2.29923863 120.004119 2.29923863 84.7872584 60.7002412 84.7872584 77.523969 124.524668 77.523969"></polygon>
                <polygon id="Fill-7" points="185.66339 75.216778 211.88147 75.216778 211.88147 101.140479 226.585673 101.140479 226.585673 35.2512252 211.88147 35.2512252 211.88147 62.7774491 185.66339 62.7774491 185.66339 35.2512252 170.966546 35.2512252 170.966546 101.140479 185.66339 101.140479"></polygon>
            </g>
        </g>
    </g>
</svg>