<?xml version="1.0" encoding="UTF-8" standalone="no"?>
<svg width="256px" height="256px" viewBox="0 0 256 256" version="1.1" xmlns="http://www.w3.org/2000/svg" xmlns:xlink="http://www.w3.org/1999/xlink">
    <!-- Generator: Sketch 39.1 (31720) - http://www.bohemiancoding.com/sketch -->
    <title>ic_servicios_red</title>
    <desc>Created with Sketch.</desc>
    <defs></defs>
    <g id="Icons" stroke="none" stroke-width="1" fill="none" fill-rule="evenodd">
        <g id="ic_servicios_red" fill="#ec0000">
            <g id="ic_24_hours" transform="translate(0.000000, 69.000000)">
                <path d="M50.3446926,59.0444955 L21.3520961,88.7399205 L21.3520961,105.140479 L91.0737896,105.140479 L91.0737896,85.3490488 L52.0336889,85.3490488 L69.850944,66.819766 C76.8350724,59.5614976 81.6076829,53.5966545 84.2092523,48.9325961 C86.7979427,44.2593383 88.0987275,39.3873752 88.0987275,34.2983079 C88.0987275,24.9628317 84.8642444,17.5886518 78.4099971,12.1702486 C71.9557498,6.74448602 64.4527793,4.03436451 55.9213242,4.03436451 C47.3972285,4.03436451 40.3689433,5.87422976 34.8493476,9.54660079 C29.3371113,13.2263313 24.2774819,18.6465743 19.6483809,25.8036501 L37.3294859,36.2761631 C42.898758,27.4135322 48.7844869,22.9868164 55.0013916,22.9868164 C58.3941031,22.9868164 61.1833388,24.0870558 63.3451805,26.3004137 C65.5235809,28.521131 66.6017419,31.2809289 66.6017419,34.5724478 C66.6017419,37.8786857 65.3506336,41.2916357 62.8502567,44.8278567 C60.3553994,48.3567182 56.1881047,53.0998908 50.3446926,59.0444955 L50.3446926,59.0444955 Z" id="Fill-5"></path>
                <polygon id="Fill-6" points="143.524668 105.140479 164.732795 105.140479 164.732795 81.523969 175.908136 81.523969 175.908136 62.4353671 164.732795 62.4353671 164.732795 45.1866304 143.524668 45.1866304 143.524668 62.4353671 129.530653 62.4353671 163.036439 6.29923863 139.004119 6.29923863 103.787258 64.7002412 103.787258 81.523969 143.524668 81.523969"></polygon>
                <polygon id="Fill-7" points="204.66339 79.216778 230.88147 79.216778 230.88147 105.140479 245.585673 105.140479 245.585673 39.2512252 230.88147 39.2512252 230.88147 66.7774491 204.66339 66.7774491 204.66339 39.2512252 189.966546 39.2512252 189.966546 105.140479 204.66339 105.140479"></polygon>
            </g>
        </g>
    </g>
</svg>