<?xml version="1.0" encoding="UTF-8" standalone="no"?>
<svg width="256px" height="256px" viewBox="0 0 256 256" version="1.1" xmlns="http://www.w3.org/2000/svg" xmlns:xlink="http://www.w3.org/1999/xlink">
    <!-- Generator: Sketch 39.1 (31720) - http://www.bohemiancoding.com/sketch -->
    <title>ic_todas_red</title>
    <desc>Created with Sketch.</desc>
    <defs>
        <polygon id="path-1" points="237.129861 237.45167 237.129861 0.303254395 0 0.303254395 0 237.45167 237.129861 237.45167"></polygon>
    </defs>
    <g id="Icons" stroke="none" stroke-width="1" fill="none" fill-rule="evenodd">
        <g id="ic_todas_red">
            <g id="ic_discount" transform="translate(5.000000, 0.000000)">
                <g id="Group-3" transform="translate(0.000000, 0.579836)">
                    <mask id="mask-2" fill="white">
                        <use xlink:href="#path-1"></use>
                    </mask>
                    <g id="Clip-2"></g>
                    <path d="M217.361502,0.303254395 L154.0283,0.303254395 C141.781577,0.303254395 132.655533,4.20149397 123.520792,13.3385547 C121.973788,14.885558 121.973788,17.3881315 123.520792,18.9351348 C125.067795,20.4821381 127.570948,20.4821381 129.117952,18.9351348 C136.828035,11.2250513 143.815063,8.21975966 154.0283,8.21975966 L217.361502,8.21975966 C223.907274,8.21975966 229.23481,13.5467159 229.23481,20.0948075 L229.23481,83.4285891 C229.23481,93.6458849 226.231258,100.628854 218.516535,108.338937 L100.96168,226.059046 C96.472587,230.5435 88.647116,230.541181 84.1713595,226.059046 L11.3949433,153.28495 C9.15039696,151.040403 7.91592543,148.059465 7.91592543,144.8866 C7.91592543,141.715475 9.15039696,138.734537 11.3949433,136.494629 L117.64589,30.3938602 C119.27639,30.8101827 120.916167,31.2247656 122.610449,31.6799371 C138.716562,35.995079 151.423095,40.4522808 160.895301,44.4345967 C159.031707,47.8817236 157.985103,51.7503915 157.985103,55.7205308 C157.985103,68.8190332 168.637276,79.4688869 181.735778,79.4688869 C194.834281,79.4688869 205.486454,68.8190332 205.486454,55.7205308 C205.486454,42.6226082 194.834281,31.9698553 181.735778,31.9698553 C179.547476,31.9698553 177.776656,33.7435746 177.776656,35.9272382 C177.776656,38.1126413 179.547476,39.8863606 181.735778,39.8863606 C190.466954,39.8863606 197.567629,46.9870361 197.567629,55.7187913 C197.567629,64.4522859 190.466954,71.5529615 181.735778,71.5529615 C173.004023,71.5529615 165.903348,64.4522859 165.903348,55.7187913 C165.903348,52.8688958 166.682648,50.0880008 168.118322,47.664285 C174.974887,50.9461585 179.262197,53.7119778 180.956478,55.4781592 C180.231683,55.6845809 179.110279,55.9130364 177.420636,56.0603149 C175.243931,56.2528205 173.633725,58.1738183 173.82855,60.3505238 C174.010039,62.4095226 175.735632,63.9652234 177.765059,63.9652234 C177.880447,63.9652234 177.998153,63.9565259 178.118759,63.9495678 C180.553492,63.7321292 187.959741,63.077494 189.384399,57.770832 C193.282639,43.2065033 136.152526,27.1119866 124.66017,24.0336356 C107.081852,19.3224655 90.1964387,16.0991554 77.1159111,14.9603569 C61.0347307,13.5513546 53.2092597,15.3836374 51.7387948,20.8851244 C51.0325541,23.5262788 49.1544643,30.5364999 81.2449256,43.1908478 C83.2882688,43.990442 85.5803617,42.9960228 86.3822754,40.9573183 C87.1836091,38.9278911 86.185131,36.6271006 84.1557039,35.8275063 C68.649721,29.7119727 62.2257145,25.2315774 60.1603375,23.1232926 C65.0483577,21.6893574 81.7412655,22.1039403 108.617259,28.2171546 L5.79836319,130.89341 C2.05899877,134.632775 0,139.601972 0,144.8866 C0,150.175287 2.05899877,155.144485 5.79836319,158.88153 L78.57246,231.655626 C82.309505,235.393251 87.2769628,237.45167 92.5656499,237.45167 C97.8496982,237.45167 102.816576,235.393251 106.562899,231.653307 L224.118334,113.935517 C233.257134,104.800776 237.153055,95.675312 237.153055,83.4285891 L237.153055,20.0948075 C237.153055,9.18228795 228.274601,0.303254395 217.361502,0.303254395 L217.361502,0.303254395 Z" id="Fill-1" fill="#ec0000" mask="url(#mask-2)"></path>
                </g>
                <path d="M205.386722,145.661262 C203.495296,144.546816 201.07158,145.185216 199.968731,147.072003 L154.596539,224.462177 C151.319304,230.133556 144.048737,232.090504 138.548989,228.91532 L129.706485,223.187117 C127.874203,221.995553 125.421495,222.523204 124.236889,224.355487 C123.045326,226.18835 123.570658,228.643377 125.40526,229.830302 L134.417656,235.664615 C137.525578,237.460948 140.92052,238.312727 144.281831,238.312727 C151.126799,238.312727 157.78332,234.769927 161.436868,228.443913 L206.795724,151.074614 C207.900892,149.190145 207.27119,146.76411 205.386722,145.661262 L205.386722,145.661262 Z" id="Fill-4" fill="#ec0000"></path>
                <path d="M94.6513211,115.675026 L94.6513211,171.092303 C94.6513211,173.278286 96.4204017,175.051425 98.6104435,175.051425 C100.798746,175.051425 102.567826,173.278286 102.567826,171.092303 L102.567826,115.675026 C102.567826,113.491363 100.798746,111.718223 98.6104435,111.718223 C96.4204017,111.718223 94.6513211,113.489043 94.6513211,115.675026 L94.6513211,115.675026 Z" id="Fill-5" fill="#ec0000"></path>
                <path d="M118.401997,127.550074 C118.401997,131.917401 121.953494,135.466579 126.318502,135.466579 C130.685249,135.466579 134.236747,131.917401 134.236747,127.550074 C134.236747,123.185646 130.685249,119.634149 126.318502,119.634149 C121.953494,119.634149 118.401997,123.183327 118.401997,127.550074 L118.401997,127.550074 Z" id="Fill-6" fill="#ec0000"></path>
                <path d="M62.9847202,151.30075 C62.9847202,155.665757 66.5362177,159.217255 70.9006456,159.217255 C75.2679728,159.217255 78.8194702,155.668077 78.8194702,151.30075 C78.8194702,146.934002 75.2679728,143.384824 70.9006456,143.384824 C66.5362177,143.384824 62.9847202,146.934002 62.9847202,151.30075 L62.9847202,151.30075 Z" id="Fill-7" fill="#ec0000"></path>
            </g>
        </g>
    </g>
</svg>