<?xml version="1.0" encoding="UTF-8" standalone="no"?>
<svg width="256px" height="256px" viewBox="0 0 256 256" version="1.1" xmlns="http://www.w3.org/2000/svg" xmlns:xlink="http://www.w3.org/1999/xlink">
    <!-- Generator: Sketch 39.1 (31720) - http://www.bohemiancoding.com/sketch -->
    <title>ic_viajes_red</title>
    <desc>Created with Sketch.</desc>
    <defs>
        <polygon id="path-1" points="0 255.68 256 255.68 256 0 0 0"></polygon>
    </defs>
    <g id="Icons" stroke="none" stroke-width="1" fill="none" fill-rule="evenodd">
        <g id="ic_viajes_red">
            <g id="ic_airplane">
                <mask id="mask-2" fill="white">
                    <use xlink:href="#path-1"></use>
                </mask>
                <g id="Clip-2"></g>
                <path d="M113.957333,54.208 L123.957333,44.208 C126.186667,41.9786667 129.813333,41.9786667 132.042667,44.208 L142.042667,54.208 C142.874667,55.04 143.978667,55.456 145.061333,55.456 C146.165333,55.456 147.248,55.04 148.085333,54.208 C149.749333,52.544 149.749333,49.856 148.085333,48.1866667 L138.085333,38.1866667 C132.688,32.7893333 123.312,32.7893333 117.914667,38.1866667 L107.914667,48.1866667 C106.250667,49.856 106.250667,52.544 107.914667,54.208 C109.584,55.8773333 112.293333,55.8773333 113.957333,54.208 L113.957333,54.208 Z" id="Fill-1" fill="#ec0000" mask="url(#mask-2)"></path>
                <path d="M252.208,137.082667 L243.210667,131.52 L243.210667,108.789333 C243.210667,100.56 236.501333,93.8773333 228.272,93.8773333 C220.042667,93.8773333 213.333333,100.56 213.333333,108.789333 L213.333333,113.082667 L204.789333,107.834667 L204.789333,78.9386667 C204.789333,70.7093333 198.106667,64 189.877333,64 C181.626667,64 174.938667,70.7093333 174.938667,78.9386667 L174.938667,89.3973333 L166.416,84.144 C166.458667,75.104 166.416,69.2106667 166.394667,68.272 C166.394667,53.4986667 163.792,39.936 158.666667,27.9786667 C154.522667,18.3146667 142.752,0 128,0 C113.248,0 101.477333,18.3146667 97.3333333,27.9786667 C92.208,39.936 89.6053333,53.4986667 89.6053333,68.2293333 C89.584,69.1893333 89.5413333,75.0826667 89.584,84.144 L81.0613333,89.3973333 L81.0613333,78.9386667 C81.0613333,70.7093333 74.3733333,64 66.1226667,64 C57.8933333,64 51.2106667,70.7093333 51.2106667,78.9386667 L51.2106667,107.834667 L42.6666667,113.082667 L42.6666667,108.789333 C42.6666667,100.56 35.9573333,93.8773333 27.728,93.8773333 C19.4986667,93.8773333 12.7893333,100.56 12.7893333,108.789333 L12.7893333,131.52 L3.792,137.082667 C1.47733333,138.293333 0,140.752 0,143.376 L0,166.394667 C0,168.645333 1.01866667,170.709333 2.78933333,172.064 C4.064,173.018667 5.56266667,173.52 7.104,173.52 C7.728,173.52 8.37333333,173.44 9.00266667,173.269333 L10.1866667,172.730667 C31.8133333,158.688 62.7893333,154.229333 91.0613333,150.709333 C92.0853333,174.336 93.8133333,198.458667 96.6666667,216.352 L75.3546667,227.562667 L74.4586667,228.208 C73.2266667,229.312 72.544,230.917333 72.544,232.56 L72.544,250.064 C72.544,252.250667 73.728,254.250667 75.6693333,255.290667 C77.376,256.208 79.4186667,256.229333 81.1253333,255.376 L128,239.397333 L174.874667,255.376 C175.706667,255.792 176.624,256 177.541333,256 C178.501333,256 179.456,255.770667 180.330667,255.290667 C182.272,254.250667 183.456,252.250667 183.456,250.064 L183.456,232.56 C183.456,230.917333 182.773333,229.312 181.541333,228.208 L159.333333,216.437333 C162.186667,198.522667 163.914667,174.352 164.938667,150.709333 C193.125333,154.229333 224.144,158.645333 245.813333,172.730667 L246.997333,173.269333 C247.626667,173.44 248.272,173.52 248.896,173.52 C250.437333,173.52 251.936,173.018667 253.210667,172.064 C254.981333,170.709333 256,168.645333 256,166.394667 L256,143.376 C256,140.752 254.522667,138.293333 252.208,137.082667 L252.208,137.082667 Z M59.728,78.9386667 C59.728,75.3973333 62.6026667,72.544 66.1226667,72.544 C69.664,72.544 72.544,75.3973333 72.544,78.9386667 L72.544,90.272 L59.728,98.9813333 L59.728,78.9386667 Z M21.3333333,108.789333 C21.3333333,105.269333 24.208,102.394667 27.728,102.394667 C31.2693333,102.394667 34.1226667,105.269333 34.1226667,108.789333 L34.1226667,116.416 L21.3333333,125.125333 L21.3333333,108.789333 Z M8.544,163.706667 L8.544,144.186667 L89.6053333,94.1653333 C89.648,103.04 89.8346667,116.293333 90.352,131.104 C90.4586667,134.730667 90.5813333,138.416 90.7306667,142.144 C62.6666667,145.648 31.6853333,149.957333 8.544,163.706667 L8.544,163.706667 Z M98.1226667,68.272 C98.1226667,54.6453333 100.501333,42.2293333 105.168,31.3546667 C109.914667,20.2933333 119.541333,8.544 128,8.544 C136.458667,8.544 146.085333,20.2933333 150.832,31.3546667 C155.498667,42.2293333 157.877333,54.6453333 157.877333,68.2933333 C157.877333,68.5013333 157.893333,72.416 157.877333,78.8746667 L157.877333,79.456 C157.856,91.9786667 157.664,113.626667 156.874667,137.125333 C156.773333,139.936 156.645333,142.789333 156.501333,145.664 L156.437333,148.752 C155.498667,171.418667 153.936,194.645333 151.354667,212.144 L132.165333,202.042667 L131.52,201.706667 C131.168,201.44 130.773333,201.290667 130.352,201.104 C128.874667,200.458667 127.168,200.458667 125.685333,201.082667 C125.269333,201.248 124.853333,201.44 124.48,201.706667 L104.645333,212.144 C102.106667,194.874667 100.544,172.021333 99.584,149.648 L99.7066667,149.626667 L99.4986667,145.664 C99.3546667,142.789333 99.2266667,139.957333 99.1253333,137.146667 C98.336,113.648 98.144,91.9786667 98.1226667,79.456 L98.1226667,78.8746667 C98.1066667,72.3946667 98.1226667,68.4586667 98.1226667,68.272 L98.1226667,68.272 Z M174.938667,234.208 L174.938667,246.373333 L130.501333,231.248 C128.917333,230.48 127.082667,230.48 125.498667,231.248 L81.0613333,246.373333 L81.0613333,234.208 L128,209.498667 L174.938667,234.208 Z M221.877333,108.789333 C221.877333,105.269333 224.730667,102.394667 228.272,102.394667 C231.792,102.394667 234.666667,105.269333 234.666667,108.789333 L234.666667,125.125333 L221.877333,116.416 L221.877333,108.789333 Z M183.456,78.9386667 C183.456,75.3973333 186.336,72.544 189.877333,72.544 C193.397333,72.544 196.272,75.3973333 196.272,78.9386667 L196.272,98.9813333 L183.456,90.272 L183.456,78.9386667 Z M247.456,163.706667 C224.330667,149.978667 193.418667,145.648 165.269333,142.144 C165.418667,138.416 165.541333,134.730667 165.648,131.082667 C166.165333,116.293333 166.352,103.04 166.394667,94.1653333 L247.456,144.186667 L247.456,163.706667 Z" id="Fill-3" fill="#ec0000" mask="url(#mask-2)"></path>
            </g>
        </g>
    </g>
</svg>