<?xml version="1.0" encoding="utf-8"?>
<!-- Generator: Adobe Illustrator 20.1.0, SVG Export Plug-In . SVG Version: 6.00 Build 0)  -->
<svg version="1.1" id="Layer_1" xmlns="http://www.w3.org/2000/svg" xmlns:xlink="http://www.w3.org/1999/xlink" x="0px" y="0px"
	 viewBox="0 0 90 90" style="enable-background:new 0 0 90 90;" xml:space="preserve">
<style type="text/css">
	.st0{fill:#FFFFFF;}
</style>
<g>
	<path class="st0" d="M73.3,2.1H16.1C8.2,2.1,1.8,8.5,1.8,16.4v57.2c0,7.9,6.4,14.3,14.3,14.3h57.2c7.9,0,14.3-6.4,14.3-14.3V16.4
		C87.6,8.5,81.2,2.1,73.3,2.1z M72.5,46.3C66.6,70,27.4,80,9.4,55.5c6.9,6.6,18.9,7.2,26.5-0.7c-4.5,0.7-7.7-3.7-2.2-6.1
		c-5,0.5-7.7-2.1-8.8-4.3c1.1-1.2,2.4-1.8,4.9-2c-5.4-1.2-7.4-3.9-8-7.1c1.5-0.4,3.4-0.7,4.4-0.5c-4.7-2.5-6.4-6.2-6.1-9
		c8.5,3.1,13.9,5.6,18.4,8.1c1.6,0.9,3.4,2.4,5.4,4.4c2.6-6.8,5.7-13.8,11.2-17.3C55,21.7,54.6,22.4,54,23c1.5-1.4,3.5-2.3,5.6-2.6
		c-0.2,1.5-2.5,2.4-3.8,2.9c1-0.3,6.4-2.7,7-1.3c0.7,1.5-3.7,2.2-4.4,2.5c-0.6,0.2-1.1,0.4-1.7,0.6c6.8-0.7,13.3,4.9,15.2,11.9
		c0.1,0.5,0.3,1.1,0.4,1.6c2.5,0.9,7,0,8.4-0.9c-1.1,2.5-3.8,4.3-7.8,4.7c2,0.8,5.6,1.2,8.1,0.8C79.4,44.8,76.8,46.4,72.5,46.3z"/>
</g>
</svg>
