<?xml version="1.0" encoding="utf-8"?>
<!-- Generator: Adobe Illustrator 20.1.0, SVG Export Plug-In . SVG Version: 6.00 Build 0)  -->
<svg version="1.1" id="Layer_1" xmlns="http://www.w3.org/2000/svg" xmlns:xlink="http://www.w3.org/1999/xlink" x="0px" y="0px"
	 viewBox="0 0 90 90" style="enable-background:new 0 0 90 90;" xml:space="preserve">
<style type="text/css">
	.st0{fill:#444445;}
	.st1{fill-rule:evenodd;clip-rule:evenodd;fill:#FFFFFF;}
</style>
<g>
	<path class="st0" d="M73.1,1.7H15.9C8,1.7,1.6,8.1,1.6,16v57.2c0,7.9,6.4,14.3,14.3,14.3h57.2c7.9,0,14.3-6.4,14.3-14.3V16
		C87.4,8.1,81,1.7,73.1,1.7z"/>
</g>
<g id="WA_Logo">
	<g>
		<path class="st1" d="M63.6,26.4c-4.8-4.8-11.2-7.5-18-7.5c-14,0-25.5,11.4-25.5,25.5c0,4.5,1.2,8.9,3.4,12.7l-3.6,13.2l13.5-3.5
			c3.7,2,7.9,3.1,12.2,3.1h0c0,0,0,0,0,0c14,0,25.5-11.4,25.5-25.5C71.1,37.6,68.4,31.2,63.6,26.4z M45.6,65.5L45.6,65.5
			c-3.8,0-7.5-1-10.8-2.9l-0.8-0.5l-8,2.1l2.1-7.8l-0.5-0.8c-2.1-3.4-3.2-7.3-3.2-11.3c0-11.7,9.5-21.2,21.2-21.2
			c5.7,0,11,2.2,15,6.2c4,4,6.2,9.3,6.2,15C66.8,56,57.3,65.5,45.6,65.5z M57.2,49.7c-0.6-0.3-3.8-1.9-4.3-2.1
			c-0.6-0.2-1-0.3-1.4,0.3c-0.4,0.6-1.6,2.1-2,2.5c-0.4,0.4-0.7,0.5-1.4,0.2c-0.6-0.3-2.7-1-5.1-3.2c-1.9-1.7-3.2-3.8-3.5-4.4
			c-0.4-0.6,0-1,0.3-1.3c0.3-0.3,0.6-0.7,1-1.1c0.3-0.4,0.4-0.6,0.6-1.1c0.2-0.4,0.1-0.8-0.1-1.1c-0.2-0.3-1.4-3.4-2-4.7
			c-0.5-1.2-1-1.1-1.4-1.1c-0.4,0-0.8,0-1.2,0s-1.1,0.2-1.7,0.8c-0.6,0.6-2.2,2.2-2.2,5.3c0,3.1,2.3,6.2,2.6,6.6
			c0.3,0.4,4.5,6.9,10.9,9.6c1.5,0.7,2.7,1,3.6,1.3c1.5,0.5,2.9,0.4,4,0.3c1.2-0.2,3.8-1.5,4.3-3c0.5-1.5,0.5-2.8,0.4-3
			C58.3,50.2,57.8,50,57.2,49.7z"/>
	</g>
</g>
</svg>
