<?xml version="1.0" encoding="utf-8"?>
<!-- Generator: Adobe Illustrator 20.1.0, SVG Export Plug-In . SVG Version: 6.00 Build 0)  -->
<svg version="1.1" id="Layer_1" xmlns="http://www.w3.org/2000/svg" xmlns:xlink="http://www.w3.org/1999/xlink" x="0px" y="0px"
	 viewBox="0 0 90 90" style="enable-background:new 0 0 90 90;" xml:space="preserve">
<style type="text/css">
	.st0{fill:#FFFFFF;}
	.st1{fill:#EC0000;}
</style>
<g>
	<path class="st0" d="M73.6,2.1H16.4C8.5,2.1,2.1,8.5,2.1,16.4v57.2c0,7.9,6.4,14.3,14.3,14.3h57.2c7.9,0,14.3-6.4,14.3-14.3V16.4
		C87.9,8.5,81.5,2.1,73.6,2.1z"/>
	<g id="Lozenge_2_">
		<g>
			<path class="st1" d="M75.1,33c0,0-0.6-4.2-2.4-6.1c-2.3-2.4-5-2.5-6.2-2.6C57.9,23.7,45,23.7,45,23.7l0,0c0,0-12.9,0-21.5,0.6
				c-1.2,0.1-3.8,0.2-6.2,2.6c-1.8,1.9-2.4,6.1-2.4,6.1s-0.6,5-0.6,10v4.7c0,5,0.6,10,0.6,10s0.6,4.2,2.4,6.1
				c2.3,2.4,5.4,2.4,6.8,2.6C29,66.9,45,67,45,67s12.9,0,21.5-0.6c1.2-0.1,3.8-0.2,6.2-2.6c1.8-1.9,2.4-6.1,2.4-6.1s0.6-5,0.6-10V43
				C75.8,37.9,75.1,33,75.1,33z"/>
		</g>
	</g>
	<polygon class="st0" points="38.6,36.4 38.7,53.6 55.3,45 	"/>
</g>
</svg>
